<svg width="50" height="50" viewBox="0 0 50 50" fill="none" xmlns="http://www.w3.org/2000/svg">
<rect width="50" height="50" rx="10" fill="#F8981E"/>
<path d="M7.89369 35V15.3636H15.6408C17.1302 15.3636 18.399 15.6481 19.4473 16.217C20.4956 16.7795 21.2946 17.5625 21.8443 18.5661C22.4004 19.5632 22.6785 20.7138 22.6785 22.0178C22.6785 23.3217 22.3972 24.4723 21.8347 25.4695C21.2722 26.4666 20.4573 27.2433 19.3898 27.7994C18.3287 28.3555 17.0439 28.6335 15.5354 28.6335H10.5975V25.3065H14.8642C15.6632 25.3065 16.3216 25.169 16.8394 24.8942C17.3635 24.6129 17.7534 24.2262 18.0091 23.734C18.2712 23.2354 18.4022 22.6634 18.4022 22.0178C18.4022 21.3658 18.2712 20.7969 18.0091 20.3111C17.7534 19.8189 17.3635 19.4386 16.8394 19.1701C16.3152 18.8952 15.6504 18.7578 14.845 18.7578H12.0453V35H7.89369ZM25.3751 35V15.3636H29.5268V23.4656H37.9547V15.3636H42.0967V35H37.9547V26.8885H29.5268V35H25.3751Z" fill="black"/>
</svg>
